# xmcd
#
# Track frame offsets:
#	150
#	18488
#	44195
#	59998
#	65834
#	79734
#	95520
#	116565
#	132794
#	151982
#	169850
#	183459
#	198306
#	224281
#	281625
#
# Disc length: 4019 seconds
#
# Revision: 0
# Processed by: cddbd v1.5.2PL0 Copyright (c) Steve Scherf et al.
# Submitted via: EZCDAudioConverter 1.3.4.1
#
DISCID=e80fb10f
DTITLE=Nico - Frozen Borderline 2/2
DYEAR=2007
DGENRE=
TTITLE0=Janitor Of Lunacy
TTITLE1=The Falconer
TTITLE2=My Only Child
TTITLE3=Le Petit Chevalier
TTITLE4=Abschied
TTITLE5=Afraid
TTITLE6=Mütterlein
TTITLE7=All That Is My Own
TTITLE8=My Only Child [Demo]
TTITLE9=Janitor Of Lunacy [Demo]
TTITLE10=Abschied Ode (Death - Farewell) [Demo]
TTITLE11=You Are Beautiful (Afraid) [Demo]
TTITLE12=The Falconer [Demo]
TTITLE13=On The Desert Shore (All That Is My Own) [Demo]
TTITLE14=Frozen Warnings
EXTD=
EXTT0=
EXTT1=
EXTT2=
EXTT3=
EXTT4=
EXTT5=
EXTT6=
EXTT7=
EXTT8=
EXTT9=
EXTT10=
EXTT11=
EXTT12=
EXTT13=
EXTT14=
PLAYORDER=
